<svg width="40" height="40" viewBox="0 0 40 40" fill="none" xmlns="http://www.w3.org/2000/svg">
<path d="M15.426 17.8284L8.90287 15.0681C8.22553 17.2494 8.20795 19.5565 8.85209 21.7479L15.4165 19.0871C15.3615 18.6687 15.3647 18.2459 15.426 17.8284Z" fill="#185A61"/>
<path d="M23.2579 29.6427L20.5974 23.0787C20.3997 23.1047 20.2011 23.1188 20.0025 23.1188C19.7806 23.1188 19.5589 23.1021 19.3386 23.0698L16.5813 29.5859C17.6861 29.9277 18.844 30.1079 20.0175 30.108C21.0948 30.108 22.1847 29.9569 23.2579 29.6427Z" fill="#185A61"/>
<path d="M14.4232 28.6721L17.1804 22.156C16.8457 21.899 16.549 21.5977 16.2971 21.2592L9.73511 23.919C10.8253 25.9856 12.4775 27.608 14.4232 28.6721Z" fill="#185A61"/>
<path d="M19.9979 37.6888C17.4684 37.6889 14.9411 37.1808 12.5414 36.1653C12.5094 36.1517 12.4779 36.1373 12.446 36.1236V37.6561H10.3835V40H29.6225V37.6561H27.5599V36.1213C27.437 36.1741 27.3139 36.2263 27.1896 36.2767C24.8667 37.2183 22.4311 37.6888 19.9979 37.6888Z" fill="#185A61"/>
<path d="M9.81641 12.9096L16.3395 15.6699C16.5966 15.3353 16.8977 15.0385 17.2363 14.7867L14.5755 8.22229C12.5542 9.28581 10.9105 10.9046 9.81641 12.9096Z" fill="#185A61"/>
<path d="M35.4676 25.0845C37.2159 20.9529 37.2506 16.3878 35.5653 12.2302C33.5945 7.36782 29.5329 3.76642 24.5367 2.36767L22.0917 4.68556C23.23 4.85978 24.3545 5.17673 25.4427 5.6372C28.8765 7.09024 31.5389 9.79345 32.9395 13.249C34.3402 16.7045 34.3114 20.4986 32.8584 23.9324C31.4053 27.3661 28.7021 30.0286 25.2466 31.4292C23.5347 32.1231 21.7633 32.4517 20.0205 32.4518C14.5014 32.452 9.26384 29.1576 7.06642 23.7363C5.66579 20.2808 5.69462 16.4867 7.14767 13.0529C8.60071 9.61907 11.3039 6.95665 14.7594 5.55603C15.787 5.13946 16.8447 4.8504 17.9138 4.68657L15.4656 2.36743C14.8648 2.53681 14.2712 2.7386 13.6907 2.97384C9.53306 4.65907 6.28048 7.86259 4.5322 11.9942C2.78399 16.1257 2.74923 20.6907 4.43446 24.8484C6.1197 29.0061 9.32321 32.2587 13.4547 34.007C17.5863 35.7552 22.1514 35.7899 26.3091 34.1047C30.4667 32.4194 33.7193 29.2159 35.4676 25.0845Z" fill="#185A61"/>
<path d="M22.1404 0H17.8657V1.46828L20.0031 3.60563L22.1404 1.46828V0Z" fill="#185A61"/>
<path d="M30.1834 24.073L23.6663 21.3153C23.4093 21.65 23.108 21.9467 22.7695 22.1986L25.4301 28.7624C27.4969 27.6721 29.1192 26.0188 30.1834 24.073Z" fill="#185A61"/>
<path d="M16.7478 7.34201L19.4088 13.9071C19.8314 13.8524 20.254 13.8583 20.6659 13.9187L23.4276 7.39248C22.3087 7.04506 21.1566 6.87115 20.0043 6.87115C18.9098 6.87108 17.8151 7.02826 16.7478 7.34201Z" fill="#185A61"/>
<path d="M24.5798 19.1568L31.0969 21.9145C31.7526 19.7958 31.8097 17.4801 31.1531 15.2375L24.5894 17.898C24.6444 18.3164 24.6412 18.7392 24.5798 19.1568Z" fill="#185A61"/>
<path d="M25.586 8.30603L22.8245 14.8321C23.1546 15.0857 23.4531 15.3849 23.7081 15.7263L30.2734 13.0652C29.2099 11.0438 27.591 9.40009 25.586 8.30603Z" fill="#185A61"/>
<path d="M20.0025 20.7737C21.262 20.7737 22.283 19.7527 22.283 18.4932C22.283 17.2337 21.262 16.2126 20.0025 16.2126C18.743 16.2126 17.7219 17.2337 17.7219 18.4932C17.7219 19.7527 18.743 20.7737 20.0025 20.7737Z" fill="#185A61"/>
</svg>
