<svg width="20" height="20" viewBox="0 0 20 20" fill="none" xmlns="http://www.w3.org/2000/svg">
<g clip-path="url(#clip0_2068_821)">
<path d="M9.99996 15.9028L9.90398 15.9988C9.75144 16.1513 9.58695 16.2848 9.41351 16.3992V16.7522C9.41351 18.543 10.8705 19.9999 12.6613 19.9999H13.1481V18.8271H12.6613C11.5172 18.8271 10.5864 17.8962 10.5864 16.7521V16.3992C10.413 16.2847 10.2485 16.1513 10.096 15.9987L9.99996 15.9028Z" fill="#41AF5A"/>
<path d="M17.2982 8.79662L16.3727 7.87126L17.2982 6.94587C18.0623 6.18173 18.0623 4.93833 17.2982 4.17419C16.534 3.41005 15.2906 3.41001 14.5264 4.17419L11.4639 7.23669H13.6373V8.40962H11.3677L14.5264 11.5683C14.8966 11.9385 15.3888 12.1424 15.9123 12.1424C16.4358 12.1424 16.928 11.9385 17.2982 11.5683C18.0623 10.8042 18.0623 9.5608 17.2982 8.79662Z" fill="#41AF5A"/>
<path d="M13.697 15.1695C14.0672 14.7993 14.2711 14.3071 14.2711 13.7836C14.2711 13.2601 14.0672 12.7679 13.697 12.3977L10.5864 9.28711V11.4605H9.41348V9.28711L6.30285 12.3977C6.30277 12.3978 6.30273 12.3979 6.30266 12.3979C5.53871 13.1621 5.53875 14.4054 6.30285 15.1695C6.68488 15.5515 7.18691 15.7425 7.68871 15.7425C8.19062 15.7426 8.69246 15.5516 9.07457 15.1695L9.99996 14.2441L10.9253 15.1695C11.6895 15.9336 12.9329 15.9336 13.697 15.1695Z" fill="#41AF5A"/>
<path d="M8.63224 8.40967H6.36263V7.23674H8.53603L5.47353 4.17424C5.10337 3.80409 4.61122 3.60022 4.08767 3.60022C3.56415 3.60022 3.072 3.80409 2.70185 4.17424C1.93771 4.93838 1.93767 6.18178 2.70181 6.94596L3.62724 7.87135L2.70181 8.79674C1.93771 9.56088 1.93771 10.8043 2.70181 11.5684C3.46595 12.3326 4.70939 12.3326 5.47353 11.5684L8.63224 8.40967Z" fill="#41AF5A"/>
<path d="M9.41353 4.18582H10.5865V6.45543L13.6971 3.3448C14.0672 2.97461 14.2711 2.48246 14.2711 1.95895C14.2711 1.43543 14.0672 0.943281 13.6971 0.573125C12.9329 -0.191055 11.6895 -0.191016 10.9254 0.573086L9.99997 1.49852L9.07462 0.573125C8.31044 -0.191016 7.067 -0.191055 6.3029 0.573125C5.53876 1.33727 5.53876 2.58066 6.3029 3.34484L9.41353 6.45547V4.18582Z" fill="#41AF5A"/>
</g>
<defs>
<clipPath id="clip0_2068_821">
<rect width="20" height="20" fill="white"/>
</clipPath>
</defs>
</svg>
