<svg width="40" height="40" viewBox="0 0 40 40" fill="none" xmlns="http://www.w3.org/2000/svg">
<g clip-path="url(#clip0_2068_342)">
<path d="M27.9347 22.0856L22.1011 39.9174L40 22.0856H27.9347Z" fill="white"/>
<path d="M15.2666 19.6248H24.7543L20.0479 12.7295L15.2666 19.6248Z" fill="white"/>
<path d="M18.5586 10.5586H8.23584L13.0396 18.5177L18.5586 10.5586Z" fill="white"/>
<path d="M6.31289 12.1347L0.197266 19.6248H10.8335L6.31289 12.1347Z" fill="white"/>
<path d="M0 22.0856L17.9819 40L12.1212 22.0856H0Z" fill="white"/>
<path d="M20.028 38.3399L25.3456 22.0856H14.7104L20.028 38.3399Z" fill="white"/>
<path d="M31.7674 10.5586H21.5454L26.9933 18.5403L31.7674 10.5586Z" fill="white"/>
<path d="M39.8029 19.6248L33.6902 12.1383L29.2124 19.6248H39.8029Z" fill="white"/>
<path d="M18.8291 0H21.1713V2.98352H18.8291V0Z" fill="white"/>
<path d="M11.3569 3.37698L13.0129 1.72106L15.2941 4.00229L13.6382 5.65822L11.3569 3.37698Z" fill="white"/>
<path d="M24.7007 4.00372L26.9819 1.72249L28.6378 3.37841L26.3566 5.65965L24.7007 4.00372Z" fill="white"/>
</g>
<defs>
<clipPath id="clip0_2068_342">
<rect width="40" height="40" fill="white"/>
</clipPath>
</defs>
</svg>
