<svg width="40" height="40" viewBox="0 0 40 40" fill="none" xmlns="http://www.w3.org/2000/svg">
<g clip-path="url(#clip0_2068_328)">
<path d="M2.72339 32.5991H37.2767V36.6896H2.72339V32.5991Z" fill="white"/>
<path d="M40 17.6813L33.9651 20.4563L29.8404 15.5381L26.3741 18.2592L21.2972 13.1802L23.3648 9.57305L19.9575 3.31024L16.4729 9.57157L18.6537 13.1802L13.6241 18.2579L10.1595 15.538L6.03484 20.4563L0 17.6813L2.58125 30.3057H37.4188L40 17.6813ZM13.8997 27.4524H11.6063V25.1591H13.8997V27.4524ZM18.731 27.4524H16.4377V25.1591H18.731V27.4524ZM23.5623 27.4524H21.269V25.1591H23.5623V27.4524ZM28.3937 27.4524H26.1003V25.1591H28.3937V27.4524Z" fill="white"/>
</g>
<defs>
<clipPath id="clip0_2068_328">
<rect width="40" height="40" fill="white"/>
</clipPath>
</defs>
</svg>
