<svg width="40" height="40" viewBox="0 0 40 40" fill="none" xmlns="http://www.w3.org/2000/svg">
<path d="M34.1422 5.85781C30.3646 2.08039 25.3422 0 20 0C14.6578 0 9.63539 2.08039 5.85781 5.85781C2.08039 9.63539 0 14.6578 0 20C0 25.3422 2.08039 30.3646 5.85781 34.1422C9.63539 37.9196 14.6578 40 20 40C25.3422 40 30.3646 37.9196 34.1422 34.1422C37.9196 30.3646 40 25.3422 40 20C40 14.6578 37.9196 9.63539 34.1422 5.85781ZM20 32.1854C13.281 32.1854 7.81461 26.7191 7.81461 20C7.81461 13.2809 13.281 7.81461 20 7.81461C26.719 7.81461 32.1854 13.281 32.1854 20C32.1854 26.719 26.719 32.1854 20 32.1854Z" fill="white"/>
<path d="M19.9998 20.6953C19.0277 20.6953 18.2368 21.4861 18.2368 22.4582C18.2368 23.4303 19.0277 24.2212 19.9998 24.2212C20.9719 24.2212 21.7628 23.4303 21.7628 22.4582C21.7628 21.4861 20.9719 20.6953 19.9998 20.6953Z" fill="white"/>
<path d="M21.2865 17.0651C21.2865 16.3558 20.7095 15.7788 20.0002 15.7788C19.2909 15.7788 18.7139 16.3558 18.7139 17.0651C18.7139 17.7744 19.2909 18.3515 20.0002 18.3515C20.7095 18.3515 21.2865 17.7744 21.2865 17.0651Z" fill="white"/>
<path d="M19.9998 10.1584C14.5732 10.1584 10.1582 14.5733 10.1582 20C10.1582 25.4267 14.5732 29.8416 19.9998 29.8416C25.4265 29.8416 29.8415 25.4266 29.8415 20C29.8415 14.5734 25.4265 10.1584 19.9998 10.1584ZM19.9998 26.5649C17.7354 26.5649 15.8931 24.7227 15.8931 22.4582C15.8931 21.2552 16.4131 20.1712 17.2402 19.4194C16.6981 18.7851 16.3698 17.963 16.3698 17.0651C16.3698 15.0634 17.9982 13.435 19.9998 13.435C22.0015 13.435 23.6299 15.0634 23.6299 17.0651C23.6299 17.9629 23.3016 18.7851 22.7595 19.4194C23.5866 20.1712 24.1066 21.2551 24.1066 22.4582C24.1066 24.7227 22.2643 26.5649 19.9998 26.5649Z" fill="white"/>
</svg>
