<svg width="40" height="40" viewBox="0 0 40 40" fill="none" xmlns="http://www.w3.org/2000/svg">
<g clip-path="url(#clip0_2068_358)">
<path d="M18.7305 12.9222C18.5935 12.4274 18.5227 11.9123 18.5227 11.3866C18.5227 10.7901 18.6146 10.2147 18.7844 9.67343H7.80957V12.9222H18.7305Z" fill="white"/>
<path d="M11.9238 27.6662C11.9238 25.4337 10.1076 23.6174 7.87508 23.6174H0V31.7149H7.87508C10.1076 31.715 11.9238 29.8988 11.9238 27.6662ZM6.70836 26.3873H9.02828V28.731H6.70836V26.3873Z" fill="white"/>
<path d="M34.8107 36.0421V19.0198C34.1077 18.3137 31.808 15.9643 31.1129 15.2659H2.60303V21.2737H7.87482C11.3997 21.2737 14.2673 24.1413 14.2673 27.6662C14.2673 31.191 11.3997 34.0587 7.87482 34.0587H2.60311V39.9913H30.8615L34.8107 36.0421Z" fill="white"/>
<path d="M35.9815 0.00866699C33.7656 0.00866699 31.9629 1.8114 31.9629 4.02726C31.9629 6.24312 33.7656 8.04585 35.9815 8.04585C38.1973 8.04585 40.0001 6.24312 40.0001 4.02726C40.0001 1.8114 38.1973 0.00866699 35.9815 0.00866699Z" fill="white"/>
<path d="M28.5861 12.8639C28.7906 12.3824 28.9039 11.8531 28.9039 11.2978C28.9039 9.08202 27.1012 7.27921 24.8853 7.27921C22.6694 7.27921 20.8667 9.08194 20.8667 11.2978C20.8667 11.853 20.98 12.3824 21.1845 12.8639H28.5861Z" fill="white"/>
</g>
<defs>
<clipPath id="clip0_2068_358">
<rect width="40" height="40" fill="white"/>
</clipPath>
</defs>
</svg>
