<svg width="40" height="40" viewBox="0 0 40 40" fill="none" xmlns="http://www.w3.org/2000/svg">
<rect width="40" height="40" rx="3" fill="#41AF5A"/>
<path d="M12.2401 19.7517C12.5323 20.0497 12.9895 20.0768 13.3117 19.8329L13.404 19.7517L19.999 13.0241L26.594 19.7517C26.8862 20.0497 27.3434 20.0768 27.6656 19.8329L27.758 19.7517C28.0502 19.4536 28.0767 18.9872 27.8376 18.6585L27.758 18.5644L20.581 11.2435C20.2888 10.9454 19.8316 10.9183 19.5094 11.1622L19.417 11.2435L12.2401 18.5644C11.9187 18.8922 11.9187 19.4238 12.2401 19.7517Z" fill="white"/>
<path d="M12.2401 27.7517C12.5323 28.0497 12.9895 28.0768 13.3117 27.8329L13.404 27.7517L19.999 21.0241L26.594 27.7517C26.8862 28.0497 27.3434 28.0768 27.6656 27.8329L27.758 27.7517C28.0502 27.4536 28.0767 26.9872 27.8376 26.6585L27.758 26.5644L20.581 19.2435C20.2888 18.9454 19.8316 18.9183 19.5094 19.1622L19.417 19.2435L12.2401 26.5644C11.9187 26.8922 11.9187 27.4238 12.2401 27.7517Z" fill="white"/>
</svg>
