<svg width="16" height="16" viewBox="0 0 16 16" fill="none" xmlns="http://www.w3.org/2000/svg">
<g clip-path="url(#clip0_1916_1441)">
<path d="M7.50488 7.5547L8 7.36882L8.49512 7.5547L8.47134 7.02635L8.80116 6.61289L8.2913 6.47225L8 6.03081L7.70868 6.47225L7.19887 6.61289L7.52866 7.02635L7.50488 7.5547Z" fill="white"/>
<path d="M3.60163 7.08283C3.68254 8.94391 4.91137 10.4963 6.58823 11.0629V12.2353H9.41176V11.0629C11.0834 10.4981 12.3172 8.94987 12.3983 7.08427L12.5968 2.82353H3.4032L3.60163 7.08283ZM7.11777 5.65892L8 4.32214L8.88223 5.65892L10.4262 6.0849L9.42748 7.33704L9.49948 8.9371L8 8.37412L6.50052 8.93707L6.57252 7.33701L5.57377 6.08487L7.11777 5.65892Z" fill="white"/>
<path d="M3.35937 1.88235H12.6406L12.7283 0H3.27169L3.35937 1.88235Z" fill="white"/>
<path d="M10.8235 13.1765H5.17647V15.0588H4.23529V16H11.7647V15.0588H10.8235V13.1765Z" fill="white"/>
<path d="M15.0588 7.05883V7.95577C15.0588 8.24019 14.8286 8.47059 14.544 8.47059C14.1922 8.47059 13.9439 8.12675 14.0552 7.79276L14.5882 6.19401C14.8997 5.2598 15.0588 4.28035 15.0588 3.29412C15.0588 2.39323 14.4301 1.65105 13.6025 1.46043L13.5572 2.4331C13.8829 2.57726 14.1176 2.90422 14.1176 3.29412C14.1176 4.14623 13.9849 5.02792 13.6953 5.89635L13.1624 7.49509C12.8477 8.43916 13.5489 9.41177 14.544 9.41177C15.3486 9.41177 16 8.76063 16 7.95577V7.05883H15.0588Z" fill="white"/>
<path d="M2.30463 5.89638C2.03595 5.09036 1.88235 4.2123 1.88235 3.29412C1.88235 2.90516 2.11627 2.57763 2.44282 2.43313L2.39752 1.46046C1.5706 1.65089 0.941177 2.3926 0.941177 3.29412C0.941177 4.27887 1.09989 5.25839 1.41176 6.19401L1.94478 7.79272C2.05606 8.12656 1.80809 8.47059 1.456 8.47059C1.17151 8.47059 0.941177 8.24032 0.941177 7.95577V7.05883H0V7.95577C0 8.76038 0.651137 9.41177 1.456 9.41177C2.45114 9.41177 3.15231 8.43916 2.83765 7.49509L2.30463 5.89638Z" fill="white"/>
</g>
<defs>
<clipPath id="clip0_1916_1441">
<rect width="16" height="16" fill="white"/>
</clipPath>
</defs>
</svg>
