<svg width="16" height="16" viewBox="0 0 16 16" fill="none" xmlns="http://www.w3.org/2000/svg">
<g clip-path="url(#clip0_1916_1454)">
<path d="M5.02726 3.32994L3.6901 1.99278C2.95169 2.86469 2.47253 3.96257 2.37271 5.16659H4.26466C4.35062 4.48015 4.62218 3.8507 5.02726 3.32994Z" fill="white"/>
<path d="M11.6444 1.32728C10.7725 0.588868 9.67464 0.109715 8.47059 0.0098877V1.90184C9.15699 1.9878 9.78648 2.25936 10.3072 2.66448L11.6444 1.32728Z" fill="white"/>
<path d="M7.52941 1.90184V0.0098877C6.32537 0.109715 5.22748 0.588868 4.35561 1.32728L5.69277 2.66444C6.21352 2.25936 6.84298 1.9878 7.52941 1.90184Z" fill="white"/>
<path d="M5.69277 8.60992L4.35561 9.94708C5.22752 10.6855 6.3254 11.1647 7.52941 11.2645V9.37253C6.84298 9.28657 6.21352 9.01501 5.69277 8.60992Z" fill="white"/>
<path d="M8.47059 9.37253V11.2645C9.67464 11.1647 10.7725 10.6855 11.6444 9.94708L10.3072 8.60992C9.78648 9.01501 9.15699 9.28657 8.47059 9.37253Z" fill="white"/>
<path d="M5.02726 7.94442C4.62218 7.42366 4.35062 6.7942 4.26466 6.10777H2.37271C2.47253 7.31179 2.95169 8.4097 3.6901 9.28158L5.02726 7.94442Z" fill="white"/>
<path d="M11.7353 6.10777C11.6493 6.7942 11.3778 7.42366 10.9727 7.94442L12.3099 9.28158C13.0483 8.40967 13.5274 7.31179 13.6273 6.10777H11.7353Z" fill="white"/>
<path d="M11.7353 5.16659H13.6273C13.5275 3.96254 13.0483 2.86466 12.3099 1.99278L10.9727 3.32994C11.3778 3.8507 11.6494 4.48015 11.7353 5.16659Z" fill="white"/>
<path d="M8 6.10777C8.25951 6.10777 8.47059 5.89666 8.47059 5.63718C8.44693 5.01374 7.55297 5.0139 7.52941 5.63718C7.52941 5.89666 7.74052 6.10777 8 6.10777Z" fill="white"/>
<path d="M5.17647 5.63719C5.17647 7.19408 6.44311 8.46072 8 8.46072C11.7406 8.31876 11.7396 2.95506 7.99997 2.81366C6.44311 2.81366 5.17647 4.0803 5.17647 5.63719ZM8 4.22542C8.77848 4.22542 9.41177 4.85874 9.41177 5.63719C9.3408 7.50753 6.65892 7.50699 6.58824 5.63716C6.58824 4.85874 7.22155 4.22542 8 4.22542Z" fill="white"/>
<path d="M3.29412 11.2842H12.7059V14.1078H3.29412V11.2842Z" fill="white"/>
<path d="M16 13.1666H13.6471V15.0489H11.7647V15.9901H16V15.5195L15.5294 14.5784L16 13.6372V13.1666Z" fill="white"/>
<path d="M2.35294 13.1666H0V13.6372L0.470588 14.5784L0 15.5195V15.9901H4.23529V15.0489H2.35294V13.1666Z" fill="white"/>
</g>
<defs>
<clipPath id="clip0_1916_1454">
<rect width="16" height="16" fill="white"/>
</clipPath>
</defs>
</svg>
